{
  "accessors": [
    {
      "bufferView": 2,
      "componentType": 5126,
      "count": 3545,
      "max": [
        1.0325613021850586,
        1.2840096950531006,
        1.0446830987930298
      ],
      "min": [
        -1.032561182975769,
        -0.029253363609313965,
        -0.99999994039535522
      ],
      "type": "VEC3"
    },
    {
      "bufferView": 2,
      "byteOffset": 42540,
      "componentType": 5126,
      "count": 3545,
      "max": [
        1,
        1,
        1
      ],
      "min": [
        -1,
        -1,
        -1
      ],
      "type": "VEC3"
    },
    {
      "bufferView": 3,
      "componentType": 5126,
      "count": 3545,
      "max": [
        0.99995273351669312,
        1,
        0.99928438663482666,
        1
      ],
      "min": [
        -0.99999874830245972,
        -1,
        -0.99995273351669312,
        -1
      ],
      "type": "VEC4"
    },
    {
      "bufferView": 1,
      "componentType": 5126,
      "count": 3545,
      "max": [
        0.98940509557723999,
        0.98209673166275024
      ],
      "min": [
        0.0097716711461544037,
        0.0064778001978993416
      ],
      "type": "VEC2"
    },
    {
      "bufferView": 1,
      "byteOffset": 28360,
      "componentType": 5126,
      "count": 3545,
      "max": [
        0.98940509557723999,
        0.98209673166275024
      ],
      "min": [
        0.0097716711461544037,
        0.0064778001978993416
      ],
      "type": "VEC2"
    },
    {
      "bufferView": 1,
      "byteOffset": 56720,
      "componentType": 5126,
      "count": 3545,
      "max": [
        0.98940509557723999,
        0.98209673166275024
      ],
      "min": [
        0.0097716711461544037,
        0.0064778001978993416
      ],
      "type": "VEC2"
    },
    {
      "bufferView": 1,
      "byteOffset": 85080,
      "componentType": 5126,
      "count": 3545,
      "max": [
        0.98940509557723999,
        0.98209673166275024
      ],
      "min": [
        0.0097716711461544037,
        0.0064778001978993416
      ],
      "type": "VEC2"
    },
    {
      "bufferView": 0,
      "componentType": 5125,
      "count": 12459,
      "max": [
        3544
      ],
      "min": [
        0
      ],
      "type": "SCALAR"
    }
  ],
  "asset": {
    "extras": {
      "author": "ra3id (https://sketchfab.com/ra3id)",
      "license": "CC-BY-4.0 (http://creativecommons.org/licenses/by/4.0/)",
      "source": "https://sketchfab.com/3d-models/the-cake-is-a-lie-f234c58e2f7944adaa67d01e07b4b8e4",
      "title": "The Cake is a Lie"
    },
    "generator": "Sketchfab-8.20.0",
    "version": "2.0"
  },
  "bufferViews": [
    {
      "buffer": 0,
      "byteLength": 49836,
      "byteOffset": 0,
      "name": "floatBufferViews",
      "target": 34963
    },
    {
      "buffer": 0,
      "byteLength": 113440,
      "byteOffset": 49836,
      "byteStride": 8,
      "name": "floatBufferViews",
      "target": 34962
    },
    {
      "buffer": 0,
      "byteLength": 85080,
      "byteOffset": 163276,
      "byteStride": 12,
      "name": "floatBufferViews",
      "target": 34962
    },
    {
      "buffer": 0,
      "byteLength": 56720,
      "byteOffset": 248356,
      "byteStride": 16,
      "name": "floatBufferViews",
      "target": 34962
    }
  ],
  "buffers": [
    {
      "byteLength": 305076,
      "uri": "scene.bin"
    }
  ],
  "images": [
    {
      "uri": "textures/CakeGrpMat_baseColor.png"
    },
    {
      "uri": "textures/CakeGrpMat_metallicRoughness.png"
    },
    {
      "uri": "textures/CakeGrpMat_normal.png"
    }
  ],
  "materials": [
    {
      "doubleSided": true,
      "emissiveFactor": [
        0,
        0,
        0
      ],
      "name": "CakeGrpMat",
      "normalTexture": {
        "index": 2,
        "scale": 1,
        "texCoord": 2
      },
      "pbrMetallicRoughness": {
        "baseColorFactor": [
          1,
          1,
          1,
          1
        ],
        "baseColorTexture": {
          "index": 0,
          "texCoord": 0
        },
        "metallicFactor": 1,
        "metallicRoughnessTexture": {
          "index": 1,
          "texCoord": 1
        },
        "roughnessFactor": 1
      }
    }
  ],
  "meshes": [
    {
      "primitives": [
        {
          "attributes": {
            "NORMAL": 1,
            "POSITION": 0,
            "TANGENT": 2,
            "TEXCOORD_0": 3,
            "TEXCOORD_1": 4,
            "TEXCOORD_2": 5,
            "TEXCOORD_3": 6
          },
          "indices": 7,
          "material": 0,
          "mode": 4
        }
      ]
    }
  ],
  "nodes": [
    {
      "children": [
        1
      ],
      "name": "RootNode (gltf orientation matrix)",
      "rotation": [
        -0.70710678118654746,
        -0,
        -0,
        0.70710678118654757
      ]
    },
    {
      "children": [
        2
      ],
      "name": "RootNode (model correction matrix)"
    },
    {
      "children": [
        3
      ],
      "name": "root"
    },
    {
      "children": [
        4
      ],
      "matrix": [
        1,
        0,
        0,
        0,
        0,
        2.2204460492503131e-16,
        1,
        0,
        0,
        -1,
        2.2204460492503131e-16,
        0,
        0,
        0,
        0,
        1
      ],
      "name": "GLTF_SceneRootNode"
    },
    {
      "children": [
        5
      ],
      "name": "Cake_2"
    },
    {
      "mesh": 0,
      "name": ""
    }
  ],
  "samplers": [
    {
      "magFilter": 9729,
      "minFilter": 9987,
      "wrapS": 10497,
      "wrapT": 10497
    }
  ],
  "scene": 0,
  "scenes": [
    {
      "name": "OSG_Scene",
      "nodes": [
        0
      ]
    }
  ],
  "textures": [
    {
      "sampler": 0,
      "source": 0
    },
    {
      "sampler": 0,
      "source": 1
    },
    {
      "sampler": 0,
      "source": 2
    }
  ]
}

