{
  "accessors": [
    {
      "bufferView": 2,
      "componentType": 5126,
      "count": 8168,
      "max": [
        5.3971347808837891,
        10.900854110717773,
        10.415468215942383
      ],
      "min": [
        -5.2357730865478516,
        -11.288410186767578,
        0.84106099605560303
      ],
      "type": "VEC3"
    },
    {
      "bufferView": 2,
      "byteOffset": 98016,
      "componentType": 5126,
      "count": 8168,
      "max": [
        0.99998348951339722,
        0.9999995231628418,
        0.99999320507049561
      ],
      "min": [
        -0.99996548891067505,
        -0.99999922513961792,
        -0.99999892711639404
      ],
      "type": "VEC3"
    },
    {
      "bufferView": 1,
      "componentType": 5126,
      "count": 8168,
      "max": [
        0.99550002813339233,
        0.99650001525878906
      ],
      "min": [
        0.0031000000890344381,
        0.0054999999701976776
      ],
      "type": "VEC2"
    },
    {
      "bufferView": 0,
      "componentType": 5125,
      "count": 20934,
      "max": [
        8167
      ],
      "min": [
        0
      ],
      "type": "SCALAR"
    },
    {
      "bufferView": 2,
      "byteOffset": 196032,
      "componentType": 5126,
      "count": 592,
      "max": [
        -3.8247361183166504,
        10.974053382873535,
        1.8601659536361694
      ],
      "min": [
        -5.2612462043762207,
        8.4029760360717773,
        0.72988498210906982
      ],
      "type": "VEC3"
    },
    {
      "bufferView": 2,
      "byteOffset": 203136,
      "componentType": 5126,
      "count": 592,
      "max": [
        0.99981188774108887,
        0.99977022409439087,
        0.98527038097381592
      ],
      "min": [
        -0.99991416931152344,
        -0.99989664554595947,
        -0.99371439218521118
      ],
      "type": "VEC3"
    },
    {
      "bufferView": 1,
      "byteOffset": 65344,
      "componentType": 5126,
      "count": 592,
      "max": [
        1,
        0.17440000176429749
      ],
      "min": [
        0,
        0.067800000309944153
      ],
      "type": "VEC2"
    },
    {
      "bufferView": 0,
      "byteOffset": 83736,
      "componentType": 5125,
      "count": 1716,
      "max": [
        591
      ],
      "min": [
        0
      ],
      "type": "SCALAR"
    },
    {
      "bufferView": 2,
      "byteOffset": 210240,
      "componentType": 5126,
      "count": 72,
      "max": [
        0.85823798179626465,
        2.9495720863342285,
        6.2625761032104492
      ],
      "min": [
        -1.2908550500869751,
        -1.777474045753479,
        4.1588659286499023
      ],
      "type": "VEC3"
    },
    {
      "bufferView": 2,
      "byteOffset": 211104,
      "componentType": 5126,
      "count": 72,
      "max": [
        0.99982470273971558,
        0.008809397928416729,
        0.99975836277008057
      ],
      "min": [
        -0.99982494115829468,
        -0.0087305391207337379,
        -0.99975746870040894
      ],
      "type": "VEC3"
    },
    {
      "bufferView": 1,
      "byteOffset": 70080,
      "componentType": 5126,
      "count": 72,
      "max": [
        0.993399977684021,
        0.98720002174377441
      ],
      "min": [
        0.018500000238418579,
        0.011099999770522118
      ],
      "type": "VEC2"
    },
    {
      "bufferView": 0,
      "byteOffset": 90600,
      "componentType": 5125,
      "count": 216,
      "max": [
        71
      ],
      "min": [
        0
      ],
      "type": "SCALAR"
    }
  ],
  "asset": {
    "extras": {
      "author": "donnie7102006 (https://sketchfab.com/donnie7102006)",
      "license": "CC-BY-4.0 (http://creativecommons.org/licenses/by/4.0/)",
      "source": "https://sketchfab.com/3d-models/mel-portal-gunwith-download-c2c834f4a8d54e26accb2182714d523c",
      "title": "mel Portal Gun(with download)"
    },
    "generator": "Sketchfab-7.92.0",
    "version": "2.0"
  },
  "bufferViews": [
    {
      "buffer": 0,
      "byteLength": 91464,
      "byteOffset": 0,
      "name": "floatBufferViews",
      "target": 34963
    },
    {
      "buffer": 0,
      "byteLength": 70656,
      "byteOffset": 91464,
      "byteStride": 8,
      "name": "floatBufferViews",
      "target": 34962
    },
    {
      "buffer": 0,
      "byteLength": 211968,
      "byteOffset": 162120,
      "byteStride": 12,
      "name": "floatBufferViews",
      "target": 34962
    }
  ],
  "buffers": [
    {
      "byteLength": 374088,
      "uri": "scene.bin"
    }
  ],
  "images": [
    {
      "uri": "textures/Material__3259_baseColor.png"
    },
    {
      "uri": "textures/Material__3260_baseColor.png"
    }
  ],
  "materials": [
    {
      "alphaMode": "BLEND",
      "doubleSided": true,
      "emissiveFactor": [
        0,
        0,
        0
      ],
      "name": "03___Default",
      "pbrMetallicRoughness": {
        "baseColorFactor": [
          0,
          0.56470600000000015,
          1,
          0.28999999999999998
        ],
        "metallicFactor": 0,
        "roughnessFactor": 1
      }
    },
    {
      "doubleSided": true,
      "emissiveFactor": [
        0,
        0,
        0
      ],
      "emissiveTexture": {
        "index": 0,
        "texCoord": 0
      },
      "name": "Material__3259",
      "pbrMetallicRoughness": {
        "baseColorFactor": [
          1,
          1,
          1,
          1
        ],
        "baseColorTexture": {
          "index": 0,
          "texCoord": 0
        },
        "metallicFactor": 0,
        "roughnessFactor": 1
      }
    },
    {
      "doubleSided": true,
      "emissiveFactor": [
        0,
        0,
        0
      ],
      "emissiveTexture": {
        "index": 1,
        "texCoord": 0
      },
      "name": "Material__3260",
      "pbrMetallicRoughness": {
        "baseColorFactor": [
          1,
          1,
          1,
          1
        ],
        "baseColorTexture": {
          "index": 1,
          "texCoord": 0
        },
        "metallicFactor": 0,
        "roughnessFactor": 1
      }
    }
  ],
  "meshes": [
    {
      "primitives": [
        {
          "attributes": {
            "NORMAL": 1,
            "POSITION": 0,
            "TEXCOORD_0": 2
          },
          "indices": 3,
          "material": 1,
          "mode": 4
        }
      ]
    },
    {
      "primitives": [
        {
          "attributes": {
            "NORMAL": 5,
            "POSITION": 4,
            "TEXCOORD_0": 6
          },
          "indices": 7,
          "material": 2,
          "mode": 4
        }
      ]
    },
    {
      "primitives": [
        {
          "attributes": {
            "NORMAL": 9,
            "POSITION": 8,
            "TEXCOORD_0": 10
          },
          "indices": 11,
          "material": 0,
          "mode": 4
        }
      ]
    }
  ],
  "nodes": [
    {
      "children": [
        1
      ],
      "name": "RootNode (gltf orientation matrix)",
      "rotation": [
        -0.70710678118654746,
        -0,
        -0,
        0.70710678118654757
      ]
    },
    {
      "children": [
        2
      ],
      "name": "RootNode (model correction matrix)"
    },
    {
      "children": [
        3,
        4,
        5
      ],
      "name": "Portal gun.obj.cleaner.materialmerger.gles"
    },
    {
      "mesh": 0,
      "name": ""
    },
    {
      "mesh": 1,
      "name": ""
    },
    {
      "mesh": 2,
      "name": ""
    }
  ],
  "samplers": [
    {
      "magFilter": 9729,
      "minFilter": 9987,
      "wrapS": 10497,
      "wrapT": 10497
    }
  ],
  "scene": 0,
  "scenes": [
    {
      "name": "OSG_Scene",
      "nodes": [
        0
      ]
    }
  ],
  "textures": [
    {
      "sampler": 0,
      "source": 0
    },
    {
      "sampler": 0,
      "source": 1
    }
  ]
}

